<svg width="25" height="25" viewBox="0 0 25 25" fill="none" xmlns="http://www.w3.org/2000/svg">
<path d="M12.9636 0.251953C6.34721 0.251953 0.964844 5.63432 0.964844 12.2507C0.964844 18.8671 6.34721 24.252 12.9636 24.252C13.4597 24.252 13.8611 23.8506 13.8611 23.3545C13.8611 22.8584 13.4597 22.457 12.9636 22.457C7.33443 22.457 2.7573 17.8799 2.7573 12.2507C2.7573 6.62154 7.33443 2.04441 12.9636 2.04441C18.5928 2.04441 23.1699 6.62154 23.1699 12.2507V15.0279C23.1699 16.065 22.3273 16.9076 21.2902 16.9076C20.2531 16.9076 19.4105 16.065 19.4105 15.0279V12.2507C19.4105 8.69571 16.5186 5.80384 12.9636 5.80384C9.4086 5.80384 6.51673 8.69571 6.51673 12.2507C6.51673 15.8057 9.4086 18.7001 12.9636 18.7001C14.938 18.7001 16.7056 17.8076 17.8897 16.4065C18.4357 17.7502 19.7545 18.7001 21.2927 18.7001C23.317 18.7001 24.9648 17.0522 24.9648 15.0279V12.2507C24.9624 5.63432 19.58 0.251953 12.9636 0.251953ZM12.9636 16.9051C10.3958 16.9051 8.30919 14.816 8.30919 12.2482C8.30919 9.68044 10.3983 7.5938 12.9636 7.5938C15.5289 7.5938 17.618 9.68293 17.618 12.2507C17.618 14.8185 15.5314 16.9051 12.9636 16.9051Z" fill="#FFF6E5"/>
</svg>
