<svg width="28" height="19" viewBox="0 0 28 19" fill="none" xmlns="http://www.w3.org/2000/svg">
<path d="M0 9.18322V17.7095L4.60746 17.6876C9.4554 17.6657 9.54285 17.6603 10.5594 17.4034C11.0896 17.2668 11.9477 16.8241 12.3795 16.4633C13.243 15.7364 13.8388 14.7307 14.0738 13.6048C14.1776 13.1184 14.1886 12.1237 14.0956 11.6045C13.8661 10.2709 13.0736 9.25974 11.822 8.69132L11.5323 8.56015L11.904 8.34152C12.4177 8.02999 13.0025 7.43424 13.2157 6.99153C13.7568 5.88203 13.7513 4.2205 13.1993 3.08367C12.5544 1.74461 11.177 0.919312 9.24771 0.71162C8.88698 0.673361 7.14347 0.651499 4.34511 0.651499H0V9.18322ZM8.69022 3.73407C9.28596 3.85978 9.66309 4.06747 9.87624 4.38447C10.1058 4.72333 10.1659 4.95288 10.1659 5.46665C10.1659 6.27555 9.86531 6.78384 9.23131 7.07352C8.62463 7.34679 8.28577 7.37412 5.76069 7.37412H3.4433V5.48304V3.59196L5.86453 3.61929C7.8048 3.64115 8.36229 3.66302 8.69022 3.73407ZM9.00176 10.3364C9.49366 10.484 9.76693 10.648 10.0511 10.9595C10.4228 11.364 10.5212 11.67 10.5157 12.4024C10.4993 13.7633 9.84345 14.5012 8.488 14.698C8.2803 14.7253 7.06695 14.7526 5.78255 14.7526H3.4433V12.4789V10.2107L6.08315 10.2326C8.29124 10.249 8.76674 10.2654 9.00176 10.3364Z" fill="#EFEFEB"/>
<path d="M17.8723 2.50989V3.54834H21.5889H25.3055V2.50989V1.47143H21.5889H17.8723V2.50989Z" fill="#EFEFEB"/>
<path d="M20.7693 4.81056C18.2989 5.06198 16.3531 6.62512 15.6645 8.90426C15.2108 10.4073 15.189 12.517 15.6098 13.9654C16.0471 15.4848 16.8013 16.4249 18.2442 17.2447C19.4849 17.9552 21.2011 18.2777 22.715 18.0918C24.3711 17.8842 25.4751 17.3868 26.4535 16.3921C27.1367 15.7034 27.6067 14.9382 27.7597 14.266L27.8089 14.0419H26.0927H24.3766L24.1853 14.337C23.8409 14.8781 23.2999 15.2334 22.5839 15.3864C21.13 15.6925 19.5997 15.0749 19.0586 13.9654C18.8728 13.5882 18.6924 12.905 18.6924 12.5826V12.3476H23.349H28.0002L27.9674 11.2927C27.9128 9.4836 27.634 8.42875 26.918 7.34657C25.896 5.80529 24.4695 5.00185 22.3816 4.8051C21.7039 4.74497 21.4361 4.74497 20.7693 4.81056ZM22.3598 7.55973C23.1359 7.72916 23.8573 8.24839 24.1579 8.87146C24.3328 9.23219 24.4859 9.76235 24.4859 10.0083V10.1613H21.6165H18.7471L18.7798 10.0083C18.8728 9.57652 19.0477 9.07369 19.1952 8.80588C19.4193 8.41236 19.862 7.96418 20.2009 7.79475C20.7638 7.51054 21.6602 7.41216 22.3598 7.55973Z" fill="#EFEFEB"/>
</svg>
