<svg width="16" height="16" viewBox="0 0 16 16" fill="none" xmlns="http://www.w3.org/2000/svg">
<path d="M15.5832 2.42357C15.8644 2.15018 16.0033 1.81753 15.9999 1.42563C16.0033 1.03372 15.8644 0.697421 15.5832 0.416722C15.3098 0.14282 14.9772 0.00391248 14.5853 0C14.1934 0.00391248 13.8571 0.14282 13.5764 0.416722L8.00545 5.99861L2.42357 0.416722C2.15018 0.14282 1.81753 0.00391248 1.42563 0C1.03372 0.00391248 0.697421 0.14282 0.416722 0.416722C0.14282 0.697421 0.00391248 1.03372 0 1.42563C0.00391248 1.81753 0.14282 2.15018 0.416722 2.42357L5.99861 8.00545L0.416722 13.5764C0.14282 13.8571 0.00391248 14.1934 0 14.5853C0.00391248 14.9772 0.14282 15.3098 0.416722 15.5832C0.697421 15.8644 1.03372 16.0033 1.42563 15.9999C1.81753 16.0033 2.15018 15.8644 2.42357 15.5832L8.00545 10.0123L13.5764 15.5832C13.8571 15.8644 14.1934 16.0033 14.5853 15.9999C14.9772 16.0033 15.3098 15.8644 15.5832 15.5832C15.8644 15.3098 16.0033 14.9772 15.9999 14.5853C16.0033 14.1934 15.8644 13.8571 15.5832 13.5764L10.0123 8.00545L15.5832 2.42357Z" fill="black"/>
</svg>
