<svg width="30" height="17" viewBox="0 0 30 17" fill="none" xmlns="http://www.w3.org/2000/svg">
<path d="M8.88232 0.397461V0.868049H7.47056V1.33864H6.52938V1.80923H6.05879V2.27981H5.5882V2.7504H5.11762V3.22099H4.64703V3.69158H4.17644V4.63275H3.70585V6.51511H3.23526V8.39746H2.76468V8.86805H2.29409V9.33863H1.8235V9.80922H1.35291V10.7504H0.882324V12.1622H1.35291V13.1033H1.8235V13.5739H2.29409V14.0445H3.23526V14.5151H12.647L12.6446 10.7504H13.1176V9.80922H13.5882V9.33863H14.5294V8.86805H15V8.39746H18.2941V7.92687H18.7647V7.45628H19.2353V6.98569H19.7058V6.51511H20.647V6.04452H22.5294V5.57393H22.0588V5.10334H21.5882V4.63275H21.1176V4.16217H19.7058V3.69158H16.8823V4.16217H16.4117V3.69158H15.9411V3.22099H15.4705V2.7504H15V2.27981H14.5294V1.80923H14.0588V1.33864H13.1176V0.868049H11.7058V0.397461H8.88232ZM21.1176 6.98569V7.45628H20.1764V7.92687H19.2353V8.39746H18.7647V9.33863H15.4706V9.80922L14.5294 9.81412V10.2847H14.0588V11.221H13.5882V14.5151H14.0588V14.9857H14.5294V15.4563H15V15.9269H15.4706V16.3975H28.647V15.4563H29.1176V13.1033H28.647V12.6328H27.7058V10.7504H27.2353V9.33864H26.7647V8.86805H26.2941V8.39747H25.8235V7.92688H25.3529V7.45629H24.4117V6.9857L21.1176 6.98569Z" fill="white"/>
</svg>
