<svg width="40" height="67" viewBox="0 0 40 67" fill="none" xmlns="http://www.w3.org/2000/svg">
<path d="M26.6494 4.17006C24.9569 2.4801 22.6214 1.43323 20.0391 1.43323C17.4568 1.43323 15.1213 2.4801 13.4288 4.17006C11.7389 5.8625 10.692 8.19803 10.692 10.7803V57.5133H29.3862V10.7803C29.3862 8.19803 28.3393 5.8625 26.6494 4.17006ZM20.0391 24.7985C17.4568 24.7985 15.3656 22.7072 15.3656 20.1249C15.3656 17.5426 17.4568 15.4514 20.0391 15.4514C22.6214 15.4514 24.7127 17.5451 24.7127 20.1249C24.7127 22.7047 22.6189 24.7985 20.0391 24.7985Z" stroke="white" stroke-width="2" stroke-linecap="round" stroke-linejoin="round"/>
<path d="M20.0392 57.5133V24.7985" stroke="white" stroke-width="2" stroke-linecap="round" stroke-linejoin="round"/>
<path d="M38.7333 44.7838V64.4351C38.7333 65.3249 37.654 65.7686 37.0284 65.1355L29.3862 57.421V38.8016H32.7512C36.0538 38.8016 38.7333 41.4786 38.7333 44.7838Z" stroke="white" stroke-width="2" stroke-linecap="round" stroke-linejoin="round"/>
<path d="M10.6921 38.8016V57.421L3.04988 65.1355C2.42425 65.7686 1.34497 65.3249 1.34497 64.4351V44.7838C1.34497 41.4786 4.02198 38.8016 7.32711 38.8016H10.6921Z" stroke="white" stroke-width="2" stroke-linecap="round" stroke-linejoin="round"/>
<path d="M20.0391 24.7984C22.6203 24.7984 24.7127 22.706 24.7127 20.1249C24.7127 17.5438 22.6203 15.4514 20.0391 15.4514C17.458 15.4514 15.3656 17.5438 15.3656 20.1249C15.3656 22.706 17.458 24.7984 20.0391 24.7984Z" stroke="white" stroke-width="2" stroke-linecap="round" stroke-linejoin="round"/>
</svg>
