<svg width="24" height="17" viewBox="0 0 24 17" fill="none" xmlns="http://www.w3.org/2000/svg">
<path d="M3.11115 0.397461C2.43364 0.397461 1.81293 0.628779 1.31486 1.00857L11.5186 10.5919C11.7478 10.8072 12.2522 10.8072 12.4815 10.5919L22.6852 1.00857C22.1871 0.628779 21.5664 0.397461 20.8889 0.397461H3.11115ZM0.537082 1.89746C0.293082 2.32845 0.148193 2.82789 0.148193 3.36042V13.4345C0.148193 14.0379 0.331512 14.5969 0.638919 15.0641L0.666771 15.0458L8.12045 9.02723L0.537082 1.89746ZM23.463 1.89746L15.8797 9.02708L23.3334 15.0456L23.3612 15.064C23.6686 14.5968 23.8519 14.0378 23.8519 13.4343V3.36028C23.8519 2.82774 23.707 2.32845 23.463 1.89746ZM8.99079 9.8419L1.48153 15.9067C1.94872 16.2142 2.50772 16.3975 3.11115 16.3975H20.8889C21.4923 16.3975 22.0513 16.2142 22.5185 15.9067L15.0093 9.8419L13.2963 11.453C12.5712 12.134 11.4289 12.134 10.7037 11.453L8.99079 9.8419Z" fill="#EFEFEB"/>
</svg>
