<svg width="24" height="25" viewBox="0 0 24 25" fill="none" xmlns="http://www.w3.org/2000/svg">
<path d="M18.4 0.397461H5.60001C4.11501 0.399461 2.69212 0.98946 1.64201 2.03947C0.591999 3.08947 0.0020224 4.51247 0 5.99747V18.7974C0.00199987 20.2824 0.591999 21.7053 1.64201 22.7555C2.69201 23.8055 4.11501 24.3954 5.60001 24.3975H18.4C19.885 24.3955 21.3079 23.8055 22.358 22.7555C23.408 21.7054 23.998 20.2824 24 18.7974V5.99747C23.998 4.51247 23.408 3.08958 22.358 2.03947C21.308 0.98946 19.885 0.399483 18.4 0.397461ZM22.4 18.7974C22.399 19.8574 21.977 20.8744 21.227 21.6244C20.477 22.3744 19.46 22.7964 18.4 22.7974H5.60001C4.54002 22.7964 3.52301 22.3744 2.77301 21.6244C2.02301 20.8744 1.60102 19.8574 1.60002 18.7974V5.99745C1.60102 4.93746 2.02301 3.92045 2.77301 3.17045C3.52301 2.42045 4.54 1.99846 5.60001 1.99746H18.4C19.46 1.99846 20.477 2.42045 21.227 3.17045C21.977 3.92045 22.399 4.93743 22.4 5.99745V18.7974ZM12 6.79745C10.515 6.79745 9.09005 7.38745 8.03994 8.43743C6.98983 9.48741 6.39996 10.9124 6.39996 12.3975C6.39996 13.8825 6.98996 15.3074 8.03994 16.3575C9.08992 17.4077 10.5149 17.9975 12 17.9975C13.4851 17.9975 14.9099 17.4075 15.9601 16.3575C17.0102 15.3076 17.6 13.8825 17.6 12.3975C17.598 10.9125 17.008 9.48959 15.958 8.43948C14.908 7.38947 13.485 6.79947 12 6.79745ZM12 16.3974C10.939 16.3974 9.922 15.9764 9.17197 15.2254C8.42097 14.4754 7.99998 13.4585 7.99998 12.3974C7.99998 11.3364 8.42097 10.3194 9.17197 9.56938C9.92198 8.81838 10.939 8.39739 12 8.39739C13.061 8.39739 14.078 8.81838 14.828 9.56938C15.579 10.3194 16 11.3364 16 12.3974C15.999 13.4574 15.577 14.4744 14.827 15.2244C14.077 15.9744 13.06 16.3964 12 16.3974ZM20.1999 5.59732C20.1999 6.16331 19.8589 6.67431 19.3359 6.89032C18.8129 7.10732 18.2099 6.98732 17.8099 6.58732C17.4099 6.18732 17.2899 5.58432 17.5069 5.06134C17.7229 4.53833 18.2339 4.19734 18.7999 4.19734C19.5729 4.19734 20.1999 4.82431 20.1999 5.59732Z" fill="#EFEFEB"/>
</svg>
