<svg width="77" height="77" viewBox="0 0 77 77" fill="none" xmlns="http://www.w3.org/2000/svg">
<path d="M44.783 22.1047H31.4496V24.7714H44.783V22.1047Z" fill="#E6E5DD"/>
<path d="M42.1157 16.7715H34.1157V19.4382H42.1157V16.7715Z" fill="#E6E5DD"/>
<path d="M42.1157 11.438H34.1157V14.1047H42.1157V11.438Z" fill="#E6E5DD"/>
<path d="M42.1157 6.10498H34.1157V8.77165H42.1157V6.10498Z" fill="#E6E5DD"/>
<path d="M44.783 0.771484H31.4496V3.43815H44.783V0.771484Z" fill="#E6E5DD"/>
<path d="M31.451 3.43018H28.7844C28.7869 9.65457 28.7818 15.8684 28.7844 22.0928H31.451C31.4485 15.8684 31.4536 9.65458 31.451 3.43018Z" fill="#E6E5DD"/>
<path d="M47.4501 3.44238H44.7834C44.7859 9.66678 44.7809 15.8806 44.7834 22.105H47.4501C47.4475 15.8806 47.4526 9.66678 47.4501 3.44238Z" fill="#E6E5DD"/>
<path d="M1.39544 53.7715V42.5684H3.15325V52.123H9.32513V53.7715H1.39544ZM12.3316 53.7715V42.5684H19.9644V44.2168H14.0894V47.2949H19.6909V48.9434H14.0894V52.123H20.0269V53.7715H12.3316ZM23.2677 53.7715V42.5684H30.9005V44.2168H25.0255V47.2949H30.6271V48.9434H25.0255V52.123H30.963V53.7715H23.2677ZM34.2038 53.7715V42.5684H38.3757C38.9434 42.5684 39.446 42.6595 39.8835 42.8418C40.3262 43.0189 40.6778 43.2611 40.9382 43.5684C41.2038 43.8757 41.4017 44.2194 41.5319 44.5996C41.6674 44.9798 41.7351 45.3861 41.7351 45.8184C41.7351 46.5475 41.558 47.1934 41.2038 47.7559C40.8496 48.3184 40.3288 48.7194 39.6413 48.959L42.2194 53.7715H40.2351L37.9304 49.3262H35.9616V53.7715H34.2038ZM35.9616 47.7871H38.071C38.6856 47.7871 39.1517 47.6283 39.4694 47.3105C39.7871 46.9876 39.946 46.5397 39.946 45.9668C39.946 45.4147 39.7924 44.9798 39.4851 44.6621C39.183 44.3444 38.7325 44.1855 38.1335 44.1855H35.9616V47.7871ZM56.0761 53.7715V42.5684H63.7089V44.2168H57.8339V47.2949H63.4354V48.9434H57.8339V52.123H63.7714V53.7715H56.0761ZM67.0122 53.7715V42.5684H68.77V52.123H74.9419V53.7715H67.0122ZM16.3778 72.0605C15.7475 72.0605 15.1903 71.9616 14.7059 71.7637C14.2215 71.5605 13.8257 71.2897 13.5184 70.9512C13.2111 70.6126 12.9585 70.1934 12.7606 69.6934C12.5626 69.1934 12.4246 68.6673 12.3465 68.1152C12.2684 67.5632 12.2293 66.9538 12.2293 66.2871C12.2293 62.2975 13.6694 60.3027 16.5496 60.3027C17.7475 60.3027 18.6694 60.6465 19.3153 61.334C19.9663 62.0163 20.3074 63.0059 20.3387 64.3027H18.5653C18.5132 62.7194 17.8205 61.9277 16.4871 61.9277C15.6173 61.9277 14.9845 62.2845 14.5887 62.998C14.1981 63.7116 14.0028 64.7637 14.0028 66.1543C14.0028 66.8262 14.0418 67.4095 14.1199 67.9043C14.1981 68.3991 14.3257 68.8444 14.5028 69.2402C14.685 69.6309 14.9376 69.9277 15.2606 70.1309C15.5835 70.3288 15.9767 70.4277 16.4403 70.4277C17.7944 70.4277 18.5132 69.5371 18.5965 67.7559H20.3778C20.3309 69.1621 19.9559 70.2324 19.2528 70.9668C18.5548 71.696 17.5965 72.0605 16.3778 72.0605ZM28.8451 71.748C28.366 71.9564 27.8113 72.0605 27.1811 72.0605C26.5509 72.0605 25.9962 71.9564 25.517 71.748C25.0378 71.5397 24.6472 71.2611 24.3451 70.9121C24.0483 70.5632 23.8061 70.1309 23.6186 69.6152C23.4363 69.0996 23.3087 68.5658 23.2358 68.0137C23.168 67.4564 23.1342 66.8366 23.1342 66.1543C23.1342 65.4824 23.168 64.873 23.2358 64.3262C23.3087 63.7741 23.4389 63.2428 23.6264 62.7324C23.8139 62.2168 24.0561 61.7871 24.3529 61.4434C24.6498 61.0944 25.0378 60.8184 25.517 60.6152C25.9962 60.4069 26.5509 60.3027 27.1811 60.3027C27.8113 60.3027 28.366 60.4069 28.8451 60.6152C29.3243 60.8236 29.7123 61.1022 30.0092 61.4512C30.3113 61.7949 30.5535 62.2246 30.7358 62.7402C30.9233 63.2559 31.0509 63.7923 31.1186 64.3496C31.1915 64.9017 31.2279 65.5189 31.2279 66.2012C31.2279 66.873 31.1915 67.485 31.1186 68.0371C31.0509 68.584 30.9233 69.1152 30.7358 69.6309C30.5483 70.1413 30.3061 70.571 30.0092 70.9199C29.7123 71.2637 29.3243 71.5397 28.8451 71.748ZM24.9076 66.123C24.9076 66.6803 24.9259 67.1673 24.9623 67.584C25.004 68.0007 25.0743 68.3939 25.1733 68.7637C25.2774 69.1335 25.4154 69.4382 25.5873 69.6777C25.7592 69.9121 25.9779 70.097 26.2436 70.2324C26.5144 70.3626 26.8321 70.4277 27.1967 70.4277C27.5561 70.4277 27.8686 70.36 28.1342 70.2246C28.405 70.084 28.6238 69.8965 28.7904 69.6621C28.9571 69.4225 29.0899 69.1204 29.1889 68.7559C29.2878 68.3913 29.3555 68.0085 29.392 67.6074C29.4337 67.2064 29.4545 66.748 29.4545 66.2324C29.4545 65.6751 29.4337 65.1882 29.392 64.7715C29.3555 64.3548 29.2852 63.9616 29.1811 63.5918C29.0821 63.222 28.9467 62.9199 28.7748 62.6855C28.6029 62.446 28.3816 62.2611 28.1108 62.1309C27.8451 61.9954 27.53 61.9277 27.1654 61.9277C26.8061 61.9277 26.491 61.998 26.2201 62.1387C25.9545 62.2741 25.7384 62.4616 25.5717 62.7012C25.405 62.9355 25.2722 63.235 25.1733 63.5996C25.0743 63.9642 25.004 64.347 24.9623 64.748C24.9259 65.1491 24.9076 65.6074 24.9076 66.123ZM37.0312 71.7715L33.5938 60.5684H35.4297L38.1172 69.7246L40.7891 60.5684H42.6484L39.2031 71.7715H37.0312ZM45.5689 71.7715V60.5684H53.2018V62.2168H47.3268V65.2949H52.9283V66.9434H47.3268V70.123H53.2643V71.7715H45.5689ZM56.5051 71.7715V60.5684H60.6769C61.2446 60.5684 61.7472 60.6595 62.1847 60.8418C62.6275 61.0189 62.979 61.2611 63.2394 61.5684C63.5051 61.8757 63.703 62.2194 63.8332 62.5996C63.9686 62.9798 64.0363 63.3861 64.0363 63.8184C64.0363 64.5475 63.8592 65.1934 63.5051 65.7559C63.1509 66.3184 62.6301 66.7194 61.9426 66.959L64.5207 71.7715H62.5363L60.2316 67.3262H58.2629V71.7715H56.5051ZM58.2629 65.7871H60.3722C60.9868 65.7871 61.453 65.6283 61.7707 65.3105C62.0884 64.9876 62.2472 64.5397 62.2472 63.9668C62.2472 63.4147 62.0936 62.9798 61.7863 62.6621C61.4842 62.3444 61.0337 62.1855 60.4347 62.1855H58.2629V65.7871Z" fill="#E6E5DD"/>
</svg>
