<svg width="24" height="25" viewBox="0 0 24 25" fill="none" xmlns="http://www.w3.org/2000/svg">
<path d="M2.29876 0.45217C1.50215 0.604465 0.646954 1.27222 0.28379 2.03369C0.0143464 2.60772 -0.0676583 3.22861 0.0553487 3.79679C0.190071 4.40011 0.406797 4.83356 0.775818 5.23187C2.56821 7.15898 5.72539 5.9172 5.72539 3.28133C5.72539 1.44208 4.10286 0.106579 2.29876 0.45217Z" fill="#EFEFEB"/>
<path d="M16.7961 8.11368C16.5208 8.17225 16.1694 8.26597 16.0054 8.31869C15.0272 8.65842 14.0431 9.40818 13.5159 10.2341L13.2816 10.5855L13.2699 9.48433L13.2524 8.37726L10.8684 8.35969L8.47852 8.34797V16.3727V24.3975H10.9679H13.4574V20.1039C13.4574 15.828 13.4867 15.1309 13.6682 14.4105C13.885 13.567 14.4004 12.8934 15.0506 12.5946C15.7184 12.2901 16.7903 12.2549 17.4639 12.5068C18.1141 12.7528 18.6002 13.3561 18.8111 14.182C18.9868 14.8673 19.022 15.8163 19.022 20.0746V24.3389H21.5114H24.0008V19.6646C24.0008 14.8322 23.9657 13.7661 23.7607 12.6239C23.2804 9.90021 21.898 8.45927 19.391 8.08439C18.6002 7.96724 17.4229 7.97895 16.7961 8.11368Z" fill="#EFEFEB"/>
<path d="M0.39502 16.3727V24.3975H2.88445H5.37387V16.3727V8.34797H2.88445H0.39502V16.3727Z" fill="#EFEFEB"/>
</svg>
