<svg width="47" height="51" viewBox="0 0 47 51" fill="none" xmlns="http://www.w3.org/2000/svg">
<path d="M19.8578 12.721L22.0209 17.0344L20.8798 17.4932L19.7405 18.7306L18.615 20.1963L18.073 21.2715L16.8179 21.5422L15.717 21.712L14.6175 22.6607L12.9301 21.4685L10.981 20.3035L8.47529 19.5962L6.93241 20.4113L6.06171 21.7356L6.42183 24.0849L8.74564 28.4117L13.9626 32.2769L19.5118 37.84L23.1874 39.519L24.5325 40.7319L24.8967 41.6377L25.6924 43.617L27.9635 44.4187L30.2731 44.3475L33.7898 43.4014L37.061 40.2937L39.0712 37.9267L40.4353 34.7283L39.6379 31.7754L38.7373 31.2801L39.1254 30.5005L39.8304 26.6319L39.071 22.4166L35.466 18.8777L32.6708 17.7411L28.3749 10.7388L26.2584 6.05586L23.7909 4.08613L21.5158 4.728L19.2507 7.2364L19.8578 12.721Z" fill="#D9D9D9"/>
<path d="M20.4195 4.58511C19.4091 5.56444 18.7501 7.06157 18.6786 8.52312C18.5933 10.592 19.3788 13.6863 20.4234 15.3582C20.8789 16.0634 21.27 16.6799 21.2898 16.7292C21.3097 16.7786 21.0482 16.9123 20.7029 17.0512C19.7901 17.4181 18.7453 18.5259 18.1945 19.7216C17.7715 20.6654 17.6186 20.7841 16.8239 20.8744C16.2217 20.9446 15.7036 21.1528 15.329 21.504C15.0332 21.7662 14.7375 22.0284 14.7128 22.0383C14.6635 22.0582 13.9516 21.5706 13.131 20.9549C11.376 19.6545 9.60243 19.0207 8.13146 19.2109C7.20346 19.326 7.01603 19.43 6.36596 20.3791C5.3662 21.8127 5.32493 23.6346 6.24142 25.4153C7.21742 27.3441 8.65679 28.8573 12.3453 31.9021C14.1796 33.3998 16.7311 35.6122 18.0514 36.8294C20.346 38.9731 21.6608 39.8201 23.1623 40.1334C23.8438 40.2606 23.8736 40.3346 23.9992 41.5736C24.1858 43.8198 25.3724 44.7755 28.1574 45.0027C31.5843 45.2584 34.6379 43.8016 37.8363 40.4239C39.704 38.4408 40.4622 37.1903 40.8196 35.4419C41.167 33.6689 40.8929 32.203 40.0128 31.4392C39.3996 30.912 39.3946 30.8281 39.817 29.598C40.5981 27.3354 40.5946 25.3308 39.8056 23.0117C38.7932 20.0659 38.0214 19.144 35.7685 18.2444C34.7507 17.8512 33.4756 17.103 32.9563 16.5953C31.7743 15.4372 30.4222 13.0005 28.9992 9.53211C27.452 5.68375 25.7601 3.75623 23.6514 3.42911C22.7328 3.28259 21.2081 3.83822 20.4195 4.58511ZM23.456 4.65388C24.4829 4.64222 25.6062 6.08194 27.3354 9.59919C29.3472 13.7479 30.3425 15.4396 31.6832 16.9925L32.7073 18.1856L31.1488 19.156C27.0552 21.6614 24.7525 26.1978 26.2974 28.7575C26.6936 29.4579 27.1137 29.7188 28.1312 29.9689C29.3117 30.268 29.6622 30.2131 31.1917 29.5982C32.6865 28.9686 35.4431 27.058 35.0281 26.881C34.9589 26.8515 34.1698 27.312 33.2624 27.906C31.4574 29.1188 30.209 29.5061 28.7126 29.2766C27.5964 29.0663 27.2948 28.815 26.7593 27.4829C25.9659 25.5094 28.1518 21.9656 31.4611 19.8615C32.7927 19.0396 33.0641 18.9305 34.0615 18.988C34.6787 19.0264 35.652 19.3802 36.2155 19.7841C37.7182 20.8133 39.0217 23.6994 39.0901 26.079C39.1545 29.0906 37.8513 32.0503 35.7608 33.6931C34.4493 34.7075 34.302 35.1965 35.5301 34.4736C36.0825 34.1369 36.9797 33.375 37.5316 32.7519C38.4136 31.7382 38.5764 31.6442 39.0507 31.826C40.617 32.5145 39.4788 36.6687 36.9655 39.3984C35.1718 41.3518 32.9231 42.8862 31.1022 43.4177C27.4356 44.4905 24.9701 43.4185 24.916 40.7179C24.9102 40.2044 25.0381 39.9524 25.3985 39.9222C25.6503 39.9069 26.2426 39.8121 26.667 39.7274C27.5406 39.5481 27.1159 39.4896 25.3237 39.5224C24.7856 39.5381 23.5705 39.2243 22.5774 38.8211C21.1248 38.2016 20.3931 37.6647 18.4889 35.7079C17.198 34.4215 14.953 32.4012 13.4747 31.2188C9.66288 28.2236 8.30743 26.7053 7.34061 24.3717C6.64156 22.7041 6.60647 22.403 6.89642 21.6273C7.58949 19.8586 9.66801 19.8253 12.2088 21.5835C14.1268 22.933 14.3793 23.3473 14.3528 25.1346C14.2543 28.0971 16.0614 30.9526 18.972 32.4189C20.3012 33.088 22.0049 33.2628 22.5817 32.773C22.8134 32.5652 23.1529 31.9129 23.3099 31.3054L23.6141 30.2088L24.4291 30.4542C25.3035 30.7045 26.7444 30.2971 26.5758 29.8778C26.5163 29.7298 26.2546 29.7203 26.0079 29.8195C24.8238 30.2955 22.8021 28.9018 20.8671 26.2983C18.3383 22.9306 18.9773 18.4613 22.052 17.7696C22.9749 17.5706 23.0537 17.4815 22.7816 17.1611C22.0393 16.17 20.6366 13.0373 20.2982 11.4827C19.4423 7.64296 20.8147 4.71279 23.456 4.65388ZM17.6751 21.9937C18.0158 22.0573 18.3525 22.6096 19.0813 24.3512C19.8994 26.3148 20.246 26.8919 21.631 28.341C23.1792 29.9824 23.2188 30.0811 23.0721 30.8565C22.7246 32.6296 20.8882 32.7661 18.4415 31.1707C16.5286 29.9051 15.4297 28.3123 15.0806 26.3035C14.6713 23.7171 15.8773 21.6561 17.6751 21.9937Z" fill="black"/>
<path d="M27.3258 41.8695C27.7556 42.0119 28.5406 42.0402 29.0737 41.9405C30.2138 41.7114 33.1189 40.0277 34.0454 39.0535L34.7206 38.3808L33.5566 39.0494C32.0177 39.9259 29.7728 40.8284 27.9962 41.2561L26.5601 41.6042L27.3258 41.8695Z" fill="black"/>
</svg>
