<svg width="32" height="41" viewBox="0 0 32 41" fill="none" xmlns="http://www.w3.org/2000/svg">
<path d="M30.6588 18.8866C30.1385 17.9345 29.3754 17.1158 28.7354 16.227C28.5374 15.9518 28.2711 15.6573 28.2322 15.3471C27.9584 13.1547 26.6447 11.8393 24.6919 11.0493C24.2659 10.8769 23.8061 10.7876 23.3776 10.6646C23.6823 9.69989 24.0374 8.79701 24.2491 7.86193C24.8181 5.34727 24.8977 2.95043 22.6466 1.05158C21.1395 -0.219869 18.6501 0.0586558 17.4422 1.64724C16.5298 2.84696 16.2887 4.22386 16.0177 5.63022C15.752 7.01048 15.3969 8.3735 15.081 9.74415C14.9531 8.54138 15.0875 7.39126 15.0554 6.24587C14.9892 3.88108 13.7195 2.1901 11.717 1.10713C9.60601 -0.0345928 6.84955 1.25273 6.12251 3.71794C5.80819 4.78396 5.75027 5.94385 5.70244 7.06649C5.57531 10.0514 5.38828 13.0254 4.37961 15.8692C3.69779 17.7916 2.898 19.672 2.21557 21.594C1.44528 23.7638 0.805791 25.9877 1.28163 28.3128C1.53223 29.5371 2.03053 30.7109 2.43225 31.9552C2.26508 32.1061 2.01097 32.2828 1.82409 32.5139C1.31769 33.1398 0.777675 33.8047 1.02812 34.6704C1.40219 35.9639 2.05421 37.111 3.1894 37.9104C6.35813 40.1423 9.85111 40.7611 13.5877 39.8419C15.3853 39.3996 16.7772 38.3518 17.4666 36.542C17.7321 35.845 17.8563 35.1673 17.2463 34.5661C19.8741 33.2226 22.5107 31.9658 23.6048 28.9242C24.9758 29.1646 25.7907 28.3269 26.5751 27.3791C27.3473 26.4459 28.1681 25.5526 28.9729 24.6467C29.3942 24.1725 29.8656 23.7375 30.2471 23.2341C31.2738 21.8794 31.4732 20.3766 30.6588 18.8866ZM23.4725 11.534C25.0371 11.8075 26.239 12.6182 26.8843 14.102C27.4998 15.517 27.1501 16.7981 26.1924 17.9432C25.9102 18.2806 25.6034 18.6047 25.2703 18.8915C24.2672 19.755 23.5402 20.7954 23.0223 22.0165C22.7467 22.6663 22.3764 23.3085 21.9172 23.8409C21.1506 24.7297 20.254 24.4205 19.7777 23.3685C19.3932 22.519 18.8336 21.6786 18.1492 21.0567C17.597 20.5549 17.5641 20.1723 17.7946 19.5887C18.5985 17.5528 20.123 16.2161 22.0086 15.2248C22.3029 15.07 22.5968 14.9148 22.8909 14.7597C22.8598 14.6801 22.8284 14.6006 22.7973 14.5209C22.2708 14.6498 21.7446 14.779 21.2256 14.9061C21.7673 13.8747 22.2843 12.8481 22.8518 11.8499C22.9507 11.6763 23.2839 11.5011 23.4725 11.534ZM16.8748 5.90462C17.0574 4.77801 17.3814 3.64667 17.8328 2.59972C18.1807 1.79284 18.9018 1.10789 19.8418 1.06501C20.9147 1.01602 21.993 1.1639 22.7094 2.18765C23.7365 3.65552 24.0434 5.20747 23.5585 6.96012C22.9467 9.17183 22.2586 11.3448 21.0692 13.3248C20.7999 13.7729 20.5014 14.208 20.1745 14.6158C19.2561 15.762 19.2751 15.664 17.8963 15.2469C16.3794 14.788 14.8051 14.5191 13.1641 14.1465C13.6558 13.3344 14.1368 12.4073 14.7417 11.5691C15.9714 9.86441 16.5437 7.94968 16.8748 5.90462ZM22.39 29.1C21.9316 29.8701 21.551 30.7527 20.9078 31.3351C18.6868 33.3464 16.0627 34.5765 13.0545 34.919C12.7802 34.9503 12.5081 35.0026 12.2367 35.0539C12.1958 35.0617 12.1638 35.1172 11.9954 35.2733C12.9309 35.3196 13.7411 35.3597 14.6251 35.4034C13.3527 36.1596 12.0747 36.5289 10.6304 36.081C11.4308 36.7151 12.3638 36.7302 13.2373 36.4671C14.1226 36.2005 14.9362 35.7004 15.7914 35.3261C16.0102 35.2303 16.3994 35.1071 16.4817 35.1995C16.6763 35.4183 16.8855 35.8054 16.8137 36.0402C16.6826 36.4688 16.4031 36.8824 16.0958 37.2212C14.7936 38.6576 13.0967 39.2652 11.2092 39.321C7.8515 39.4205 4.80655 38.6561 2.42339 36.061C1.79276 35.3742 1.67831 34.6191 1.71407 33.7763C1.74218 33.1079 2.01311 32.466 2.71005 32.4825C3.07663 32.4912 3.56057 33.0161 3.76304 33.4216C4.32842 34.5538 5.12621 35.3451 6.36424 35.6619C6.49673 35.6958 6.63486 35.7143 6.77132 35.7234C6.8659 35.7298 6.96233 35.7078 6.97272 35.7068C6.25178 35.2366 5.49509 34.743 4.73839 34.2494C4.77476 34.191 4.81113 34.1327 4.84734 34.0744C5.51128 34.2847 6.17538 34.495 6.83932 34.7052C6.86178 34.6581 6.88424 34.611 6.9067 34.5638C6.12189 33.9792 5.32593 33.4087 4.55472 32.8066C3.06792 31.6458 2.23162 30.1259 2.08202 28.2368C1.89942 25.9303 2.4023 23.7352 3.19506 21.5968C3.72208 20.1755 4.2841 18.7654 4.88218 17.3727C6.18852 14.3312 6.76765 11.1574 6.73296 7.85781C6.71631 6.28082 6.79378 4.72307 7.44275 3.23491C8.42024 0.993736 11.238 1.17184 12.43 2.48388C13.7263 3.91039 14.3393 5.61389 14.1723 7.56768C13.9795 9.82351 13.2947 11.9429 12.346 13.9771C12.2256 14.2356 11.7664 14.4316 11.4375 14.4817C9.95961 14.7066 8.55334 15.1075 7.28765 15.912C11.2016 14.7374 15.0066 14.6373 18.6295 16.639C18.001 17.8172 17.3908 18.9613 16.7469 20.1685C16.1718 20.0499 15.4091 19.806 14.6338 19.7559C13.7619 19.6996 12.8618 19.726 12.0041 19.8818C10.6653 20.1251 9.35174 20.5077 7.90437 20.8613C8.49649 20.9167 9.02016 20.9659 9.54993 21.0156C8.83236 21.9506 8.24207 21.8588 6.20135 20.505C6.15597 20.5683 6.11059 20.6315 6.0652 20.6947C6.80173 21.2223 7.53825 21.7499 8.33009 22.317C8.23367 22.4611 8.06207 22.7173 7.89062 22.9735C7.94242 23.0401 7.99422 23.1066 8.04602 23.1732C8.33406 22.9572 8.65724 22.7751 8.90479 22.5198C10.9672 20.3928 13.4602 20.2122 16.1045 21.0091C17.5815 21.4541 18.6339 22.4517 19.0451 24.0054C19.3272 25.0719 18.9708 25.8644 17.8934 26.095C16.6319 26.365 15.3251 26.4169 14.0429 26.5985C12.1655 26.8643 10.7174 27.7848 9.82269 29.511C10.4542 29.0292 11.0859 28.5472 11.7175 28.0653C11.7694 28.11 11.8215 28.1546 11.8735 28.1991C11.262 29.1824 10.7539 30.2539 10.0097 31.124C9.28161 31.9753 8.31282 32.6215 7.44336 33.363C8.95201 33.1549 10.2359 32.5084 11.0613 31.1171C11.497 30.3829 11.8677 29.6101 12.2633 28.8523C12.8487 27.7312 13.7661 27.2115 15.0338 27.2911C15.53 27.3223 16.0289 27.3268 16.5264 27.3208C18.1069 27.3019 19.2873 26.649 19.9225 25.1161C20.4697 25.1463 20.6878 25.367 20.8739 25.9471C21.115 26.6988 21.6182 27.3985 22.1316 28.019C22.4379 28.3894 22.6301 28.6965 22.39 29.1ZM29.2579 22.9709C27.9688 24.433 26.6722 25.8887 25.3615 27.3312C24.5 28.2792 23.3787 28.2193 22.4794 27.0905C22.0713 26.5783 21.8801 25.8935 21.5452 25.1921C23.1799 24.5635 23.6661 23.2063 24.2701 21.8996C24.5975 21.1914 25.0679 20.5077 25.6151 19.9516C26.6174 18.9329 27.777 18.0584 28.1433 16.4721C29.2452 17.765 29.9226 19.0911 30.1122 20.6359C30.2241 21.5469 29.8411 22.3095 29.2579 22.9709Z" fill="black"/>
<path d="M22.3889 29.0994C21.9304 29.8695 21.5498 30.7521 20.9067 31.3345C18.6856 33.3458 16.0615 34.5759 13.0534 34.9184C12.7791 34.9496 12.5069 35.002 12.2355 35.0533C12.1946 35.0611 12.1627 35.1166 11.9943 35.2727C12.9297 35.319 13.7399 35.3591 14.6239 35.4028C13.3515 36.159 12.0736 36.5283 10.6293 36.0804C11.4297 36.7145 12.3627 36.7296 13.2361 36.4665C14.1215 36.1999 14.935 35.6998 15.7903 35.3255C16.0091 35.2297 16.3983 35.1065 16.4805 35.1989C16.6752 35.4177 16.8843 35.8048 16.8125 36.0396C16.6814 36.4682 16.4019 36.8818 16.0947 37.2206C14.7924 38.657 13.0955 39.2646 11.2081 39.3204C7.85034 39.4199 4.80538 38.6555 2.42223 36.0604C1.7916 35.3736 1.67715 34.6185 1.7129 33.7757C1.74102 33.1073 2.01194 32.4654 2.70889 32.4818C3.07547 32.4905 3.5594 33.0155 3.76187 33.421C4.32725 34.5531 5.12505 35.3445 6.36308 35.6613C6.49556 35.6952 6.6337 35.7136 6.77015 35.7228C6.86474 35.7292 6.96116 35.7072 6.97155 35.7062C6.25062 35.236 5.49392 34.7424 4.73723 34.2488C4.7736 34.1904 4.80997 34.1321 4.84618 34.0738C5.51012 34.2841 6.17421 34.4944 6.83815 34.7045C6.86061 34.6575 6.88308 34.6104 6.90554 34.5632C6.12073 33.9785 5.32477 33.4081 4.55356 32.806C3.06676 31.6452 2.23046 30.1253 2.08086 28.2362C1.89826 25.9297 2.40114 23.7346 3.19389 21.5962C3.72092 20.1749 4.28294 18.7648 4.88102 17.3721C6.18735 14.3306 6.76649 11.1568 6.7318 7.85719C6.71514 6.28021 6.79262 4.72245 7.44158 3.23429C8.41908 0.993121 11.2368 1.17122 12.4288 2.48327C13.7251 3.90977 14.3382 5.61328 14.1711 7.56707C13.9783 9.82289 13.2936 11.9423 12.3448 13.9765C12.2244 14.235 11.7652 14.431 11.4364 14.481C9.95844 14.706 8.55217 15.1069 7.28648 15.9114C11.2004 14.7368 15.0055 14.6367 18.6283 16.6384C17.9998 17.8166 17.3897 18.9606 16.7458 20.1678C16.1706 20.0493 15.4079 19.8054 14.6326 19.7553C13.7607 19.699 12.8607 19.7254 12.003 19.8812C10.6641 20.1245 9.35058 20.5071 7.90321 20.8607C8.49533 20.9161 9.01899 20.9653 9.54877 21.015C8.83119 21.9499 8.24091 21.8582 6.20019 20.5044C6.15481 20.5677 6.10942 20.6309 6.06404 20.6941C6.80056 21.2217 7.53709 21.7492 8.32892 22.3164C8.2325 22.4604 8.0609 22.7167 7.88945 22.9729C7.94126 23.0395 7.99306 23.106 8.04486 23.1725C8.3329 22.9566 8.65608 22.7745 8.90362 22.5192C10.966 20.3922 13.4591 20.2116 16.1034 21.0084C17.5804 21.4535 18.6328 22.4511 19.044 24.0048C19.326 25.0712 18.9697 25.8638 17.8923 26.0944C16.6307 26.3644 15.3239 26.4163 14.0417 26.5979C12.1643 26.8637 10.7162 27.7842 9.82153 29.5104C10.4531 29.0286 11.0848 28.5466 11.7163 28.0647C11.7683 28.1094 11.8204 28.1539 11.8723 28.1985C11.2608 29.1818 10.7527 30.2533 10.0086 31.1234C9.28044 31.9747 8.31166 32.6209 7.44219 33.3624C8.95084 33.1543 10.2347 32.5078 11.0602 31.1165C11.4958 30.3823 11.8665 29.6094 12.2621 28.8517C12.8475 27.7306 13.765 27.2109 15.0327 27.2904C15.5288 27.3217 16.0277 27.3262 16.5253 27.3202C18.1057 27.3013 19.2861 26.6484 19.9214 25.1155C20.4686 25.1457 20.6866 25.3664 20.8727 25.9465C21.1139 26.6981 21.617 27.3979 22.1305 28.0184C22.4367 28.3888 22.6289 28.6959 22.3889 29.0994Z" fill="#D9D9D9"/>
<path d="M23.5585 6.95989C22.9467 9.1716 22.2586 11.3446 21.0692 13.3246C20.7999 13.7727 20.5013 14.2078 20.1745 14.6156C19.2561 15.7617 19.2751 15.6637 17.8963 15.2466C16.3794 14.7877 14.805 14.5188 13.1641 14.1463C13.6558 13.3342 14.1368 12.4071 14.7416 11.5689C15.9714 9.86417 16.5437 7.94945 16.8748 5.90439C17.0574 4.77778 17.3813 3.64643 17.8327 2.59948C18.1807 1.7926 18.9018 1.10766 19.8418 1.06477C20.9147 1.01579 21.993 1.16367 22.7094 2.18742C23.7365 3.65528 24.0434 5.20724 23.5585 6.95989Z" fill="#D9D9D9"/>
<path d="M26.1888 17.9434C25.9066 18.2809 25.5997 18.605 25.2666 18.8918C24.2636 19.7553 23.5366 20.7957 23.0187 22.0168C22.743 22.6666 22.3728 23.3088 21.9136 23.8411C21.147 24.73 20.2503 24.4208 19.774 23.3688C19.3896 22.5193 18.83 21.6789 18.1456 21.0569C17.5933 20.5551 17.5605 20.1725 17.7909 19.5889C18.5948 17.553 20.1194 16.2164 22.005 15.225C22.2993 15.0703 22.5931 14.9151 22.8873 14.76C22.8561 14.6803 22.8248 14.6008 22.7936 14.5212C22.2672 14.6501 21.7409 14.7792 21.222 14.9064C21.7637 13.875 22.2807 12.8483 22.8482 11.8502C22.947 11.6765 23.2803 11.5013 23.4689 11.5343C25.0334 11.8078 26.2354 12.6185 26.8807 14.1022C27.4962 15.5173 27.1464 16.7983 26.1888 17.9434Z" fill="#D9D9D9"/>
<path d="M29.2557 22.9715C27.9666 24.4336 26.6701 25.8892 25.3593 27.3318C24.4978 28.2798 23.3765 28.2198 22.4772 27.0911C22.0691 26.5789 21.8779 25.8941 21.543 25.1927C23.1777 24.5641 23.6639 23.2069 24.268 21.9002C24.5953 21.192 25.0657 20.5083 25.6129 19.9522C26.6152 18.9334 27.7748 18.059 28.1411 16.4727C29.243 17.7656 29.9204 19.0917 30.11 20.6365C30.2219 21.5475 29.8389 22.3101 29.2557 22.9715Z" fill="#D9D9D9"/>
</svg>
