<svg width="13" height="9" viewBox="0 0 13 9" fill="none" xmlns="http://www.w3.org/2000/svg">
<path d="M12.4637 8.48833H12.1561H11.847V8.18076V7.87318H11.5394V7.56562H11.2318H10.9243V7.25804H10.6167H10.3091V7.56562H10.0015H9.69397V7.87318H9.3864H9.07883V8.18076H8.77125V7.87318H9.07883V7.56562H9.3864H9.69397V7.25804H10.0015H10.3091V6.9489H10.6167V6.64133V6.33376V6.02619H10.3091V5.71861H10.0015V5.41104H9.69397V5.10347H9.3864H9.07883V4.7959H8.77125H8.46369H8.15611H7.84697V5.10347H7.5394H7.23182V5.41104H6.92426V5.10347H7.23182V4.7959H7.5394H7.84697V4.48832H8.15611H8.46369H8.77125V4.18076H9.07883V3.87318V3.56561V3.25647V2.9489H8.77125V2.64133H8.46369V2.33376H8.15611V2.02618H7.84697V1.71861H7.5394V1.41104H7.23182H6.92426V1.10346H6.61668H6.30911V0.795898H6.00154H5.69397H5.38639H5.07883V1.10346H4.77125V1.41104H4.46368V1.71861H4.15454H3.84697V2.02618H3.5394V2.33376V2.64133H3.23183V2.9489V3.25647H2.92425V3.56561V3.87318H3.23183H3.5394V4.18076H3.84697V4.48832V4.7959H4.15454H4.46368V5.10347H4.77125V5.41104H5.07883V5.71861H4.77125V5.41104H4.46368V5.10347H4.15454H3.84697V4.7959H3.5394V4.48832V4.18076H3.23183H2.92425V3.87318H2.61668H2.30911H2.00153H1.69397H1.38639V4.18076H1.07883V4.48832H0.771253V4.7959V5.10347H0.463677V5.41104V5.71861H0.154541V6.02619V6.33376V6.64133V6.9489H0.463677V7.25804V7.56562H0.771253V7.87318V8.18076H1.07883V8.48833V8.7959H1.38639H1.69397H2.00153H2.30911H2.61668H2.92425H3.23183H3.5394H3.84697H4.15454H4.46368H4.77125H5.07883H5.38639H5.69397H6.00154H6.30911H6.61668H6.92426H7.23182H7.5394H7.84697H8.15611H8.46369H8.77125H9.07883H9.3864H9.69397H10.0015H10.3091H10.6167H10.9243H11.2318H11.5394H11.847H12.1561H12.4637H12.7713V8.48833H12.4637Z" fill="#E6E5DD"/>
</svg>
