<svg width="76" height="76" viewBox="0 0 76 76" fill="none" xmlns="http://www.w3.org/2000/svg">
<path d="M44.6658 21.3333H31.3325V23.9999H44.6658V21.3333Z" fill="#E6E5DD"/>
<path d="M41.9985 16.0001H33.9985V18.6668H41.9985V16.0001Z" fill="#E6E5DD"/>
<path d="M41.9985 10.6666H33.9985V13.3333H41.9985V10.6666Z" fill="#E6E5DD"/>
<path d="M41.9985 5.3335H33.9985V8.00016H41.9985V5.3335Z" fill="#E6E5DD"/>
<path d="M44.6658 0H31.3325V2.66667H44.6658V0Z" fill="#E6E5DD"/>
<path d="M31.3338 2.65869H28.6672C28.6697 8.88309 28.6646 15.0969 28.6672 21.3213H31.3338C31.3313 15.0969 31.3364 8.88309 31.3338 2.65869Z" fill="#E6E5DD"/>
<path d="M47.3329 2.67078H44.6662C44.6687 8.89518 44.6637 15.109 44.6662 21.3334H47.3329C47.3303 15.109 47.3354 8.89518 47.3329 2.67078Z" fill="#E6E5DD"/>
<path d="M25.4238 54.9998H23.3918L20.8318 50.3918H19.2478V54.9998H17.4878V43.7998H21.3278C22.4158 43.7998 23.3011 44.0984 23.9838 44.6958C24.6664 45.2824 25.0078 46.0451 25.0078 46.9838C25.0078 47.7198 24.7891 48.3704 24.3518 48.9358C23.9251 49.5011 23.3544 49.8744 22.6398 50.0558L25.4238 54.9998ZM23.2318 47.0478C23.2318 46.5571 23.0664 46.1678 22.7358 45.8798C22.4051 45.5918 21.9678 45.4478 21.4238 45.4478H19.2478V48.7918H21.2478C21.8344 48.7918 22.3091 48.6318 22.6718 48.3118C23.0451 47.9811 23.2318 47.5598 23.2318 47.0478ZM36.1359 54.9998H28.4239V43.7998H35.8319V45.4478H30.1999V48.5038H35.2399V50.1678H30.1999V53.3358H36.1359V54.9998ZM45.616 54.9998L44.848 52.2958H41.168L40.4 54.9998H38.544L41.984 43.7998H44.096L47.536 54.9998H45.616ZM41.648 50.6478H44.368L43.008 45.8958L41.648 50.6478ZM58.0881 49.1438C58.0881 49.9331 57.9975 50.6691 57.8161 51.3518C57.6348 52.0344 57.3521 52.6584 56.9681 53.2238C56.5948 53.7784 56.0775 54.2158 55.4161 54.5358C54.7548 54.8558 53.9921 55.0104 53.1281 54.9998H50.2961V43.7998H53.4161C54.9201 43.7998 56.0721 44.2744 56.8721 45.2238C57.6828 46.1624 58.0881 47.4691 58.0881 49.1438ZM56.2961 49.0958C56.2961 46.6638 55.3628 45.4478 53.4961 45.4478H52.0721V53.3358H53.1601C54.1735 53.3358 54.9468 52.9571 55.4801 52.1998C56.0241 51.4424 56.2961 50.4078 56.2961 49.0958ZM18.3687 68.9678H20.1767C20.134 70.3331 19.7767 71.3944 19.1047 72.1518C18.4434 72.9091 17.4834 73.2878 16.2247 73.2878C13.4514 73.2878 12.0647 71.3624 12.0647 67.5118C12.0647 63.5331 13.5207 61.5438 16.4327 61.5438C17.6594 61.5438 18.5874 61.8851 19.2167 62.5678C19.8567 63.2504 20.1767 64.2104 20.1767 65.4478H18.3687C18.3687 63.9438 17.7074 63.1918 16.3847 63.1918C15.478 63.1918 14.8274 63.5331 14.4327 64.2158C14.0487 64.8984 13.8567 65.9598 13.8567 67.3998C13.8567 68.7864 14.038 69.8318 14.4007 70.5358C14.774 71.2291 15.4034 71.5758 16.2887 71.5758C17.6007 71.5758 18.294 70.7064 18.3687 68.9678ZM22.9848 67.3838C22.9848 65.5598 23.3101 64.1304 23.9608 63.0958C24.6221 62.0504 25.6568 61.5278 27.0648 61.5278C28.4835 61.5278 29.5235 62.0558 30.1848 63.1118C30.8355 64.1464 31.1608 65.5811 31.1608 67.4158C31.1608 69.2398 30.8355 70.6744 30.1848 71.7198C29.5448 72.7651 28.5155 73.2878 27.0968 73.2878C25.6781 73.2878 24.6381 72.7598 23.9768 71.7038C23.3155 70.6264 22.9848 69.1864 22.9848 67.3838ZM24.7928 67.4318C24.7928 68.8184 24.9635 69.8584 25.3048 70.5518C25.6568 71.2451 26.2435 71.5918 27.0648 71.5918C27.8968 71.5918 28.4835 71.2451 28.8248 70.5518C29.1768 69.8478 29.3528 68.7918 29.3528 67.3838C29.3528 65.9758 29.1821 64.9304 28.8408 64.2478C28.4995 63.5651 27.9181 63.2238 27.0968 63.2238C26.2648 63.2238 25.6728 63.5758 25.3208 64.2798C24.9688 64.9838 24.7928 66.0344 24.7928 67.4318ZM40.7049 61.7998H42.5609L38.7369 72.9998H37.2489L33.4249 61.7998H35.3289L38.0169 70.5678L40.7049 61.7998ZM52.9691 72.9998H45.2571V61.7998H52.6651V63.4478H47.0331V66.5038H52.0731V68.1678H47.0331V71.3358H52.9691V72.9998ZM64.1292 72.9998H62.0972L59.5372 68.3918H57.9532V72.9998H56.1932V61.7998H60.0332C61.1212 61.7998 62.0065 62.0984 62.6892 62.6958C63.3719 63.2824 63.7132 64.0451 63.7132 64.9838C63.7132 65.7198 63.4945 66.3704 63.0572 66.9358C62.6305 67.5011 62.0599 67.8744 61.3452 68.0558L64.1292 72.9998ZM61.9372 65.0478C61.9372 64.5571 61.7719 64.1678 61.4412 63.8798C61.1105 63.5918 60.6732 63.4478 60.1292 63.4478H57.9532V66.7918H59.9532C60.5399 66.7918 61.0145 66.6318 61.3772 66.3118C61.7505 65.9811 61.9372 65.5598 61.9372 65.0478Z" fill="#E6E5DD"/>
</svg>
