<svg width="25" height="12" viewBox="0 0 25 12" fill="none" xmlns="http://www.w3.org/2000/svg">
<path d="M10.9142 0.323364C10.6703 0.346814 10.4546 0.384334 10.4358 0.398403C10.403 0.431233 10.145 7.1144 10.1732 7.14254C10.2107 7.17537 13.9767 9.31868 13.9861 9.3093C14.0142 9.27178 13.6719 0.426543 13.6437 0.403093C13.5827 0.346814 12.5416 0.267085 11.9413 0.271775C11.6224 0.276465 11.158 0.299914 10.9142 0.323364Z" fill="#FFF6E5"/>
<path d="M8.38159 0.92346C7.82349 1.13451 6.89957 1.57067 6.82922 1.65509C6.78701 1.70668 6.43057 4.99433 6.46809 5.02716C6.5103 5.06937 8.72865 6.31689 8.76148 6.31689C8.78493 6.31689 8.80369 6.17151 8.80369 5.99329C8.80369 5.60871 8.93031 1.97401 8.96783 1.23769C8.98659 0.848421 8.97721 0.735862 8.935 0.735862C8.90217 0.735862 8.65361 0.824971 8.38159 0.92346Z" fill="#FFF6E5"/>
<path d="M15.1163 1.26127C15.1491 1.92724 15.4165 9.62813 15.4165 9.90953C15.4165 10.1159 15.4165 10.1159 15.6885 10.2378C16.4951 10.5989 18.1507 11.1524 18.221 11.0773C18.2492 11.0492 17.3018 1.72558 17.2643 1.66461C17.1893 1.54267 15.3367 0.735998 15.1304 0.735998C15.1069 0.735998 15.0975 0.951735 15.1163 1.26127Z" fill="#FFF6E5"/>
<path d="M2.35499 5.64157C1.47798 5.82916 0.699444 6.45293 0.305489 7.28305C-0.205715 8.36642 0.0334725 9.70306 0.896422 10.5566C1.07933 10.7395 1.32321 10.9412 1.43577 11.0022L1.63743 11.11L1.59991 10.9553C1.52018 10.6551 1.54832 9.83437 1.64681 9.53422C1.87662 8.83542 2.49569 8.20696 3.20856 7.94902C3.55562 7.82239 4.28256 7.78487 4.74687 7.8646C5.39408 7.98185 5.7552 8.15537 8.08142 9.48263C9.34301 10.2002 10.5624 10.8662 10.7969 10.96C11.7208 11.3352 12.3211 11.429 13.7938 11.429H14.8725L13.9579 10.9178C13.4561 10.6364 11.3831 9.45918 9.3477 8.29607C6.93238 6.91254 5.50195 6.11994 5.22055 6.01207C4.66245 5.79633 4.17938 5.67908 3.62597 5.61812C3.04911 5.55246 2.75833 5.55715 2.35499 5.64157Z" fill="#FFF6E5"/>
<path d="M20.5754 5.59942C20.2096 5.63694 19.7828 5.71667 19.4592 5.81047C19.1543 5.89958 19.1168 5.92303 19.1403 6.00745C19.1496 6.06373 19.1965 6.4952 19.2434 6.97358L19.3232 7.84122H19.9376C20.4159 7.84122 20.6129 7.85998 20.8286 7.93033C21.5368 8.16482 22.1981 8.82611 22.4326 9.53429C22.5264 9.83444 22.5592 10.6552 22.4795 10.9553L22.442 11.1101L22.6437 11.0022C22.7515 10.9413 22.9954 10.7396 23.1783 10.5614C24.0413 9.7125 24.2851 8.37118 23.7739 7.28311C23.2018 6.0778 22.0199 5.45404 20.5754 5.59942Z" fill="#FFF6E5"/>
<path d="M3.56498 9.31867C3.33517 9.43592 3.10067 9.68918 3.00688 9.9096C2.9037 10.1535 2.92715 10.5709 3.05377 10.8195C3.17571 11.0633 3.47587 11.3119 3.73382 11.3822C3.85106 11.4104 4.75153 11.4245 6.2617 11.4198L8.61136 11.4057L6.90891 10.4349C5.97561 9.89553 5.08452 9.41716 4.92975 9.36088C4.75153 9.29991 4.49359 9.25301 4.2075 9.23894C3.81824 9.22018 3.73851 9.22956 3.56498 9.31867Z" fill="#FFF6E5"/>
<path d="M19.5483 9.26692C19.492 9.30444 19.4967 9.45451 19.5811 10.3081C19.6468 10.9694 19.703 11.3164 19.7406 11.3446C19.7734 11.3633 19.9375 11.3821 20.1111 11.3821C20.369 11.3821 20.4487 11.3586 20.6317 11.2461C21.0022 11.0116 21.1569 10.6973 21.1288 10.233C21.1053 9.87661 20.9553 9.61866 20.627 9.38885C20.4487 9.26223 20.3878 9.24816 20.022 9.23409C19.7968 9.2294 19.5858 9.24347 19.5483 9.26692Z" fill="#FFF6E5"/>
</svg>
